<?xml version="1.0" encoding="UTF-8"?>
<svg version="1.1" viewBox="0 0 2048 2048" width="600" height="600" xmlns="http://www.w3.org/2000/svg">
<path transform="translate(0)" d="m0 0h2048v2048h-2048z" fill="#EC506F"/>
<path transform="translate(1534,673)" d="m0 0h31l25 5 16 6 19 10 12 9 10 9 9 9 10 13 10 18 7 17 4 17 2 11v31l-4 20-7 21-9 17-8 11-9 11-8 8-14 11-17 10-16 7-18 5-11 2-11 1h-16l-17-2-19-5-15-6-17-9-13-10-13-12-11-13-11-18-8-19-3-11-171 1-15 4-14 7-11 9-8 10-7 14-4 15-7 41-6 20-8 16-7 12-11 14-9 10-2 1 2 4 11 11 11 15 9 16 7 19 4 16 7 40 4 13 6 11 11 12 9 8 12 6 13 4 6 1 27 1 3-10 9-21 10-16 9-11 17-17 13-9 14-8 17-7 21-5 18-2 21 1 18 3 21 7 21 11 11 8 12 11 9 9 11 15 9 17 7 19 4 19 1 7v26l-3 19-5 16-5 12-8 15-8 11-12 14-14 12-14 9-21 10-16 5-17 3-10 1h-13l-18-2-20-5-15-6-15-8-11-8-14-12-10-11-10-14-8-15-7-19-2-5h-29l-25-4-21-7-16-8-12-8-14-12-9-9-10-13-9-16-7-16-4-13-5-27-5-26-5-13-6-10-9-10-11-8-13-6-13-3h-65l-10 25-8 15-10 13-12 13-13 11-16 10-12 6-18 6-19 4-11 1h-15l-21-3-15-4-16-6-18-10-14-11-10-9-11-14-10-15-7-15-6-17h-79l-5 15-11 23-12 16-6 7-8 7-9 8-15 10-19 9-21 6-11 2-12 1h-16l-20-3-21-6-21-10-17-12-13-12-11-13-9-14-10-21-5-17-3-16-1-11v-10l3-24 6-20 6-14 10-16 9-12 12-12 9-8 15-10 21-10 21-6 12-2h32l13 2 15 4 15 6 19 10 14 11 17 17 12 17 8 16 5 14 2 6 2 1h76l8-20 11-21 9-12 11-12 11-10 15-10 15-8 14-5 19-5 8-1h32l21 4 19 7 19 10 14 10 14 13 11 14 7 11 8 16 5 13 2 6h57l15-2 16-6 11-7 11-11 6-9 5-12 5-22 5-30 6-21 9-19 8-12 8-10 10-11 11-9 10-7 9-5 14-7 19-6 18-3 175-1 8-21 10-19 9-12 9-10 10-10 14-10 14-8 16-7 18-5z" fill="#FFFFFE"/>
<path transform="translate(0)" d="m0 0h2048v2048h-2048zm18 3-14 1-1 2040 2 1h2030l10-1v-2039l-6-2z" fill="#280A0F"/>
<path transform="translate(489,952)" d="m0 0h19l15 4 16 8 10 9 8 9 8 16 4 15v19l-4 14-4 10-9 13-11 10-16 9-13 4-8 1h-12l-14-3-12-5-11-7-9-8-9-13-5-11-3-10-1-7v-16l4-15 8-16 9-11 12-9 12-6z" fill="#EC506F"/>
<path transform="translate(1399,1162)" d="m0 0h21l15 4 15 8 9 7 8 10 7 12 5 15 1 6v16l-4 16-8 16-9 11-12 9-12 6-9 3-12 2h-10l-15-3-16-7-9-7-11-11-8-13-5-15-1-6v-18l4-16 7-14 10-12 10-8 14-7 9-3z" fill="#EC506F"/>
<path transform="translate(1540,742)" d="m0 0h19l12 3 12 5 11 7 11 11 7 11 5 12 3 12v18l-4 16-8 15-8 10-8 7-14 8-11 4-11 2h-13l-14-3-16-7-9-7-11-11-8-13-5-15-1-7v-16l4-16 8-16 9-10 9-8 10-6 15-5z" fill="#EC506F"/>
<path transform="translate(839,952)" d="m0 0h20l15 4 14 7 11 9 9 11 8 17 3 12v20l-3 13-8 16-8 10-9 8-10 6-12 5-7 2-9 1h-10l-15-3-12-5-13-9-8-8-7-10-6-12-4-18v-10l3-16 5-12 6-10 9-10 10-8 15-7z" fill="#EC506F"/>
</svg>
