<?xml version="1.0" encoding="utf-8"?>
<svg xmlns="http://www.w3.org/2000/svg" width="1200.0" height="1200.0" viewBox="0 0 24 24" fill="none">
  

  <path d="M11.8658 3.26833L3.10854 20.7829C3.05867 20.8827 3.1312 21 3.2427 21H20.7573C20.8688 21 20.9413 20.8827 20.8915 20.7829L12.1342 3.26833C12.0789 3.15777 11.9211 3.15777 11.8658 3.26833Z" stroke="#222222" stroke-linecap="round" stroke-width="0.5"/>
  

  <path d="M19 17H5" stroke="#222222" stroke-linecap="round" stroke-width="0.5"/>
  

  <path d="M17 13H7" stroke="#222222" stroke-linecap="round" stroke-width="0.5"/>
  

  <path d="M15 9H9" stroke="#222222" stroke-linecap="round" stroke-width="0.5"/>
  

  <g id="top-annotation">
    <circle cx="12.0" cy="6.0" r="0.88" fill="#ffffff" stroke="#111827" stroke-width="0.096"/>
    <text x="12.0" y="6.0" font-size="0.80" font-family="Arial, Helvetica, sans-serif" text-anchor="middle" dominant-baseline="middle" fill="#111827">1</text>
    <text x="12.0" y="7.6" font-size="0.90" font-family="Arial, Helvetica, sans-serif" text-anchor="middle" dominant-baseline="hanging" fill="#111827">prompt</text>
  </g>
  
  <g id="second-annotation">
    <circle cx="12.0" cy="10.4" r="0.88" fill="#ffffff" stroke="#111827" stroke-width="0.096"/>
    <text x="12.0" y="10.4" font-size="0.80" font-family="Arial, Helvetica, sans-serif" text-anchor="middle" dominant-baseline="middle" fill="#111827">2</text>
    <text x="12.0" y="11.6" font-size="0.90" font-family="Arial, Helvetica, sans-serif" text-anchor="middle" dominant-baseline="hanging" fill="#111827">promptsjabloon</text>
  </g>
  
  <g id="third-annotation">
    <circle cx="12.0" cy="14.4" r="0.88" fill="#ffffff" stroke="#111827" stroke-width="0.096"/>
    <text x="12.0" y="14.4" font-size="0.80" font-family="Arial, Helvetica, sans-serif" text-anchor="middle" dominant-baseline="middle" fill="#111827">3</text>
    <text x="12.0" y="15.6" font-size="0.90" font-family="Arial, Helvetica, sans-serif" text-anchor="middle" dominant-baseline="hanging" fill="#111827">workflow</text>
  </g>
  
  <g id="fourth-annotation">
    <circle cx="12.0" cy="18.4" r="0.88" fill="#ffffff" stroke="#111827" stroke-width="0.096"/>
    <text x="12.0" y="18.4" font-size="0.80" font-family="Arial, Helvetica, sans-serif" text-anchor="middle" dominant-baseline="middle" fill="#111827">4</text>
    <text x="12.0" y="19.6" font-size="0.90" font-family="Arial, Helvetica, sans-serif" text-anchor="middle" dominant-baseline="hanging" fill="#111827">agent</text>
  </g>
</svg>
